ffmpeg version 2.8.11-0ubuntu0.16.04.1 Copyright (c) 2000-2017 the FFmpeg developers
  built with gcc 5.4.0 (Ubuntu 5.4.0-6ubuntu1~16.04.4) 20160609
  configuration: --prefix=/usr --extra-version=0ubuntu0.16.04.1 --build-suffix=-ffmpeg --toolchain=hardened --libdir=/usr/lib/x86_64-linux-gnu --incdir=/usr/include/x86_64-linux-gnu --cc=cc --cxx=g++ --enable-gpl --enable-shared --disable-stripping --disable-decoder=libopenjpeg --disable-decoder=libschroedinger --enable-avresample --enable-avisynth --enable-gnutls --enable-ladspa --enable-libass --enable-libbluray --enable-libbs2b --enable-libcaca --enable-libcdio --enable-libflite --enable-libfontconfig --enable-libfreetype --enable-libfribidi --enable-libgme --enable-libgsm --enable-libmodplug --enable-libmp3lame --enable-libopenjpeg --enable-libopus --enable-libpulse --enable-librtmp --enable-libschroedinger --enable-libshine --enable-libsnappy --enable-libsoxr --enable-libspeex --enable-libssh --enable-libtheora --enable-libtwolame --enable-libvorbis --enable-libvpx --enable-libwavpack --enable-libwebp --enable-libx265 --enable-libxvid --enable-libzvbi --enable-openal --enable-opengl --enable-x11grab --enable-libdc1394 --enable-libiec61883 --enable-libzmq --enable-frei0r --enable-libx264 --enable-libopencv
  libavutil      54. 31.100 / 54. 31.100
  libavcodec     56. 60.100 / 56. 60.100
  libavformat    56. 40.101 / 56. 40.101
  libavdevice    56.  4.100 / 56.  4.100
  libavfilter     5. 40.101 /  5. 40.101
  libavresample   2.  1.  0 /  2.  1.  0
  libswscale      3.  1.101 /  3.  1.101
  libswresample   1.  2.101 /  1.  2.101
  libpostproc    53.  3.100 / 53.  3.100
[mp3 @ 0x7968c0] Unknown attached picture mimetype: ('image/png', None), skipping.
[mp3 @ 0x7968c0] Skipping 0 bytes of junk at 17522.
Input #0, mp3, from '17-moliere-molier-swietoszek-akt-01-scena-05.mp3':
  Metadata:
    title           : Moliere, "Świętoszek", Akt_01_Scena_05 (tłum. Tadeusz Boy-Żeleński)
    artist          : Joanna Domańska, Wiktor Korzeniewski
    album           : Wolne Lektury
    genre           : 0
    URL             : http://wolnelektury.pl/katalog/lektura/boy-swietoszek
    encoder         : Lavf53.21.1
    date            : 2013
    CONDUCTOR       : Adam Bień
    PROJECT         : Słuchamy Polski finansowanego przez Ministerstwo Kultury i Dziedzictwa Narodowego
    TCD             : 75617262132
    performer       : Adam Bień
    album_artist    : Fundacja Nowoczesna Polska
    copyright       : 2013 Fundacja Nowoczesna Polska. Licensed to the public under http://creativecommons.org/licenses/by-sa/3.0/deed.pl verify at http://wolnelektury.pl/katalog/lektura/boy-swietoszek
    TRANSLATOR      : Tadeusz Boy-Żeleński
    encoded_by      : Adam Bień
    publisher       : Fundacja Nowoczesna Polska
  Duration: 00:02:31.69, start: 0.000000, bitrate: 64 kb/s
    Stream #0:0: Audio: mp3, 44100 Hz, mono, s16p, 64 kb/s
Output #0, null, to 'pipe:':
  Metadata:
    title           : Moliere, "Świętoszek", Akt_01_Scena_05 (tłum. Tadeusz Boy-Żeleński)
    artist          : Joanna Domańska, Wiktor Korzeniewski
    album           : Wolne Lektury
    genre           : 0
    URL             : http://wolnelektury.pl/katalog/lektura/boy-swietoszek
    date            : 2013
    CONDUCTOR       : Adam Bień
    PROJECT         : Słuchamy Polski finansowanego przez Ministerstwo Kultury i Dziedzictwa Narodowego
    TCD             : 75617262132
    performer       : Adam Bień
    album_artist    : Fundacja Nowoczesna Polska
    copyright       : 2013 Fundacja Nowoczesna Polska. Licensed to the public under http://creativecommons.org/licenses/by-sa/3.0/deed.pl verify at http://wolnelektury.pl/katalog/lektura/boy-swietoszek
    TRANSLATOR      : Tadeusz Boy-Żeleński
    encoded_by      : Adam Bień
    publisher       : Fundacja Nowoczesna Polska
    encoder         : Lavf56.40.101
    Stream #0:0: Audio: pcm_s16le, 44100 Hz, mono, s16, 705 kb/s
    Metadata:
      encoder         : Lavc56.60.100 pcm_s16le
Stream mapping:
  Stream #0:0 -> #0:0 (mp3 (native) -> pcm_s16le (native))
Press [q] to stop, [?] for help
[silencedetect @ 0x7a9ae0] silence_start: 1.17184
[silencedetect @ 0x7a9ae0] silence_end: 2.01143 | silence_duration: 0.839592
[silencedetect @ 0x7a9ae0] silence_start: 4.28041
[silencedetect @ 0x7a9ae0] silence_end: 4.96327 | silence_duration: 0.682857
[silencedetect @ 0x7a9ae0] silence_start: 5.48204
[silencedetect @ 0x7a9ae0] silence_end: 5.98204 | silence_duration: 0.5
[silencedetect @ 0x7a9ae0] silence_start: 8.04204
[silencedetect @ 0x7a9ae0] silence_end: 8.69878 | silence_duration: 0.656735
[silencedetect @ 0x7a9ae0] silence_start: 17.2371
[silencedetect @ 0x7a9ae0] silence_end: 18.1029 | silence_duration: 0.865714
[silencedetect @ 0x7a9ae0] silence_start: 18.5433
[silencedetect @ 0x7a9ae0] silence_end: 19.2261 | silence_duration: 0.682857
[silencedetect @ 0x7a9ae0] silence_start: 19.771
[silencedetect @ 0x7a9ae0] silence_end: 20.5845 | silence_duration: 0.813469
[silencedetect @ 0x7a9ae0] silence_start: 21.3122
[silencedetect @ 0x7a9ae0] silence_end: 22.3347 | silence_duration: 1.02245
[silencedetect @ 0x7a9ae0] silence_start: 31.709
[silencedetect @ 0x7a9ae0] silence_end: 32.6008 | silence_duration: 0.891837
[silencedetect @ 0x7a9ae0] silence_start: 33.198
[silencedetect @ 0x7a9ae0] silence_end: 33.9592 | silence_duration: 0.761224
[silencedetect @ 0x7a9ae0] silence_start: 41.6094
[silencedetect @ 0x7a9ae0] silence_end: 42.449 | silence_duration: 0.839592
[silencedetect @ 0x7a9ae0] silence_start: 47.6959
[silencedetect @ 0x7a9ae0] silence_end: 48.2743 | silence_duration: 0.578367
[silencedetect @ 0x7a9ae0] silence_start: 48.6624
[silencedetect @ 0x7a9ae0] silence_end: 49.2408 | silence_duration: 0.578367
[silencedetect @ 0x7a9ae0] silence_start: 50.8306
[silencedetect @ 0x7a9ae0] silence_end: 51.409 | silence_duration: 0.578367
[silencedetect @ 0x7a9ae0] silence_start: 52.0322
[silencedetect @ 0x7a9ae0] silence_end: 52.6106 | silence_duration: 0.578367
[silencedetect @ 0x7a9ae0] silence_start: 58.2755
[silencedetect @ 0x7a9ae0] silence_end: 58.8016 | silence_duration: 0.526122
[silencedetect @ 0x7a9ae0] silence_start: 60.4437
[silencedetect @ 0x7a9ae0] silence_end: 60.9959 | silence_duration: 0.552245
[silencedetect @ 0x7a9ae0] silence_start: 69.6388
[silencedetect @ 0x7a9ae0] silence_end: 70.4 | silence_duration: 0.761224
[silencedetect @ 0x7a9ae0] silence_start: 81.7335
[silencedetect @ 0x7a9ae0] silence_end: 82.4686 | silence_duration: 0.735102
[silencedetect @ 0x7a9ae0] silence_start: 95.5
[silencedetect @ 0x7a9ae0] silence_end: 96.2612 | silence_duration: 0.761224
[silencedetect @ 0x7a9ae0] silence_start: 97.642
[silencedetect @ 0x7a9ae0] silence_end: 98.1682 | silence_duration: 0.526122
[silencedetect @ 0x7a9ae0] silence_start: 110.886
[silencedetect @ 0x7a9ae0] silence_end: 111.647 | silence_duration: 0.761224
[silencedetect @ 0x7a9ae0] silence_start: 123.033
[silencedetect @ 0x7a9ae0] silence_end: 123.611 | silence_duration: 0.578367
[silencedetect @ 0x7a9ae0] silence_start: 125.253
[silencedetect @ 0x7a9ae0] silence_end: 126.171 | silence_duration: 0.917959
[silencedetect @ 0x7a9ae0] silence_start: 140.039
[silencedetect @ 0x7a9ae0] silence_end: 140.696 | silence_duration: 0.656735
[silencedetect @ 0x7a9ae0] silence_start: 142.573
[silencedetect @ 0x7a9ae0] silence_end: 143.151 | silence_duration: 0.578367
size=N/A time=00:02:31.69 bitrate=N/A    
video:0kB audio:13066kB subtitle:0kB other streams:0kB global headers:0kB muxing overhead: unknown
